<mxfile host="app.diagrams.net" modified="2020-10-19T07:09:42.409Z" agent="5.0 (Windows NT 10.0; Win64; x64) AppleWebKit/537.36 (KHTML, like Gecko) Chrome/86.0.4240.75 Safari/537.36" etag="C-hOd74QZH98QuFYBc_g" version="13.8.0" type="github">
  <diagram id="ESChq6aIP10Lroi5_GyX" name="Page-1">
    <mxGraphModel dx="1040" dy="588" grid="1" gridSize="10" guides="1" tooltips="1" connect="1" arrows="1" fold="1" page="1" pageScale="1" pageWidth="827" pageHeight="1169" math="0" shadow="0">
      <root>
        <mxCell id="0" />
        <mxCell id="1" parent="0" />
        <mxCell id="RLHHCJSL-kLlAEU1sFE1-1" value="Pool" style="swimlane;html=1;childLayout=stackLayout;resizeParent=1;resizeParentMax=0;startSize=20;" vertex="1" parent="1">
          <mxGeometry x="180" y="220" width="360" height="480" as="geometry" />
        </mxCell>
        <mxCell id="RLHHCJSL-kLlAEU1sFE1-2" value="Lane 1" style="swimlane;html=1;startSize=20;" vertex="1" parent="RLHHCJSL-kLlAEU1sFE1-1">
          <mxGeometry y="20" width="120" height="460" as="geometry" />
        </mxCell>
        <mxCell id="RLHHCJSL-kLlAEU1sFE1-3" value="Lane 2" style="swimlane;html=1;startSize=20;" vertex="1" parent="RLHHCJSL-kLlAEU1sFE1-1">
          <mxGeometry x="120" y="20" width="120" height="460" as="geometry" />
        </mxCell>
        <mxCell id="RLHHCJSL-kLlAEU1sFE1-4" value="Lane 3" style="swimlane;html=1;startSize=20;" vertex="1" parent="RLHHCJSL-kLlAEU1sFE1-1">
          <mxGeometry x="240" y="20" width="120" height="460" as="geometry" />
        </mxCell>
        <mxCell id="RLHHCJSL-kLlAEU1sFE1-5" value="Pool" style="swimlane;html=1;childLayout=stackLayout;resizeParent=1;resizeParentMax=0;startSize=20;" vertex="1" parent="1">
          <mxGeometry x="60" y="220" width="120" height="480" as="geometry" />
        </mxCell>
        <mxCell id="RLHHCJSL-kLlAEU1sFE1-6" value="Lane 1" style="swimlane;html=1;startSize=20;" vertex="1" parent="RLHHCJSL-kLlAEU1sFE1-5">
          <mxGeometry y="20" width="120" height="460" as="geometry" />
        </mxCell>
      </root>
    </mxGraphModel>
  </diagram>
</mxfile>
